<?xml version="1.0" encoding="utf-8"?>
<!-- Generator: Adobe Illustrator 25.1.0, SVG Export Plug-In . SVG Version: 6.00 Build 0)  -->
<svg version="1.1" id="Layer_1" xmlns="http://www.w3.org/2000/svg" xmlns:xlink="http://www.w3.org/1999/xlink" x="0px" y="0px"
	 viewBox="0 0 100 100" style="enable-background:new 0 0 100 100;" xml:space="preserve">
<style type="text/css">
	.st0{opacity:0.5;fill:#2EA2FF;}
	.st1{opacity:0.7;fill:#FF4848;}
	.st2{fill:#FF4848;}
	.st3{opacity:0.8;fill:#FF4848;}
	.st4{fill:#FFBE4A;}
	.st5{opacity:0.9;fill:#FFF5F5;}
	.st6{fill:#2EA2FF;}
	.st7{fill:#FFFFFF;}
</style>
<g>
	<path class="st4" d="M30.92,77.26c0,0-30.92,11.97-30.92-10.57c0-19.65,18.5-19.37,18.5-19.37s0-18.21,17.92-13.3
		c0,0,2.89-18.2,19.94-18.21c15.03-0.01,15.9,14.74,15.9,14.74c1.55-2.25,20.34-0.8,13.94,17.37c0,0,17.14-2.48,13.22,18.18
		c-2.82,14.86-25.64,10.03-25.64,10.03s-2.1,5.51-19.73,7.6C32.66,86.27,30.92,77.26,30.92,77.26z"/>
	<path class="st5" d="M30.12,62.99h10.81v20.72c3.23,0.56,7.49,0.7,13.12,0.03c2.09-0.25,3.96-0.61,5.66-1.06V62.99h10.81
		l-20.2-21.6L30.12,62.99z"/>
</g>
</svg>
