<svg viewBox="0 0 100 100">
<g>

	<path class="dark" d="M94.53,15.99H58.45l0.1-0.04l-9.95-4.1L5.48,11.78C2.46,11.77,0,13.54,0,15.72v0.27v4.13v61.1
		c0,3.02,2.45,5.47,5.47,5.47h9v1.52h11.62V86.7h48.15v1.52h11.29V86.7h9c3.02,0,5.47-2.45,5.47-5.47V21.46
		C100,18.44,97.55,15.99,94.53,15.99z"/>
	<path class="light" d="M48.6,20.2L0,20.12v-4.4c0-2.18,2.46-3.95,5.48-3.94l43.12,0.07l9.95,4.1L48.6,20.2z"/>
	<polygon class="dark" points="14.47,41.05 14.47,88.22 26.09,88.22 26.09,51.18 74.24,51.18 74.24,88.22 85.53,88.22 85.53,41.05
		"/>
</g>
<polygon class="arrow" points="50,26.43 31.59,46.12 41.44,46.12 41.44,73.57 58.56,73.57 58.56,46.12 68.41,46.12 "/>
</svg>
