<?xml version="1.0" encoding="utf-8"?>
<!-- Generator: Adobe Illustrator 25.1.0, SVG Export Plug-In . SVG Version: 6.00 Build 0)  -->
<svg version="1.1" id="Layer_1" xmlns="http://www.w3.org/2000/svg" xmlns:xlink="http://www.w3.org/1999/xlink" x="0px" y="0px"
	 viewBox="0 0 100 100" style="enable-background:new 0 0 100 100;" xml:space="preserve">
<style type="text/css">
	.st0{opacity:0.5;fill:#2EA2FF;}
	.st1{opacity:0.7;fill:#FF4848;}
	.st2{fill:#FF4848;}
	.st3{opacity:0.8;fill:#FF4848;}
	.st4{fill:#FFBE4A;}
	.st5{opacity:0.9;fill:#FFF5F5;}
	.st6{fill:#2EA2FF;}
	.st7{fill:#FFFFFF;}
</style>
<circle class="st0" cx="50" cy="50" r="40.33"/>
<path class="st6" d="M50,50L19.33,23.82C26.73,15.16,37.72,9.67,50,9.67c22.27,0,40.33,18.05,40.33,40.33H50z"/>
<g>
	<path class="st7" d="M26.1,49.03c-2.84-2-4.25-4.73-4.25-8.18c0-3.14,1.08-5.75,3.23-7.86c2.17-2.1,4.86-3.15,8.08-3.15
		c3.2,0,5.87,1.05,8.01,3.15c2.14,2.09,3.2,4.71,3.2,7.88c0,3.32-1.41,6.03-4.23,8.13c1.55,0.83,2.77,2.05,3.65,3.65
		c0.9,1.6,1.35,3.4,1.35,5.4c0,3.42-1.12,6.22-3.35,8.41c-2.24,2.19-5.1,3.28-8.58,3.28c-3.57,0-6.51-1.1-8.83-3.3
		c-2.34-2.2-3.5-4.97-3.5-8.31C20.87,53.81,22.61,50.77,26.1,49.03z M26.6,57.94c0,1.78,0.62,3.32,1.85,4.6
		c1.25,1.27,2.77,1.9,4.55,1.9c1.77,0,3.28-0.63,4.53-1.88c1.25-1.27,1.88-2.79,1.88-4.55c0-1.78-0.63-3.3-1.88-4.55
		c-1.25-1.25-2.76-1.88-4.53-1.88c-1.75,0-3.26,0.63-4.53,1.88C27.22,54.71,26.6,56.21,26.6,57.94z M27.32,40.83
		c0,1.65,0.56,3.04,1.68,4.15c1.13,1.13,2.5,1.7,4.1,1.7c1.58,0,2.94-0.57,4.08-1.7c1.13-1.13,1.7-2.49,1.7-4.08
		s-0.57-2.94-1.7-4.08c-1.13-1.13-2.49-1.7-4.08-1.7s-2.94,0.57-4.08,1.7C27.89,37.96,27.32,39.29,27.32,40.83z"/>
	<path class="st7" d="M68.68,35.95H49.62v-5.45h28.8L54.05,70.45l-4.63-2.93L68.68,35.95z"/>
</g>
</svg>
