<?xml version="1.0" encoding="utf-8"?>
<!-- Generator: Adobe Illustrator 23.0.1, SVG Export Plug-In . SVG Version: 6.00 Build 0)  -->
<svg version="1.1" id="Layer_1" xmlns="http://www.w3.org/2000/svg" xmlns:xlink="http://www.w3.org/1999/xlink" x="0px" y="0px"
	 viewBox="0 0 500 500" style="enable-background:new 0 0 500 500;" xml:space="preserve">
<style type="text/css">
	.st0{fill:#ED2024;stroke:#ED2024;stroke-miterlimit:10;}
</style>
<path class="st0" d="M269.7,201.1c1.3-5.5,4.6-11.5,20.6-11.5c-0.3,0,0-9.6,0-9.6l-61.4,0.7l0-0.8v9.6c15.1,0,22.8,0.8,21.8,11.6
	c-30,3.8-56.7,24.2-61.9,48.9c-5.2,24.6,12.6,45,40.8,48.8c-1.2,4.5-4.2,11.8-19.9,11.8l-0.1,9.3l55.8,0.1v-9.6
	c-8,0-19.4-0.3-17.1-10.7l0.2-0.7c30.2-3.5,57.4-24.1,62.6-49C316.4,225.2,298.3,204.7,269.7,201.1z M248,213.4l-9.2,43.5l-7.4,33.6
	c-17.4-4.4-27.5-20.9-23.3-40.5c4.2-19.7,21.5-36.2,40.8-40.6L248,213.4z M291.8,250c-4.3,20-21.9,36.7-41.6,40.7l0.7-3.2L260,245
	l4.9-22.6l1.5-6.9c0,0,0.7-2.5,1.5-6.1C285.6,213.6,296,230.2,291.8,250z"/>
</svg>
