<?xml version="1.0" standalone="no"?>
<!DOCTYPE svg PUBLIC "-//W3C//DTD SVG 20010904//EN"
 "http://www.w3.org/TR/2001/REC-SVG-20010904/DTD/svg10.dtd">
<svg version="1.0" xmlns="http://www.w3.org/2000/svg"
 width="1900.000000pt" height="1900.000000pt" viewBox="0 0 1900.000000 1900.000000"
 preserveAspectRatio="xMidYMid meet">
<metadata>
Created by potrace 1.11, written by Peter Selinger 2001-2013
</metadata>
<g transform="translate(0.000000,1900.000000) scale(0.100000,-0.100000)"
fill="#000000" stroke="none">
<path d="M9948 12065 c-2 -2 -37 -6 -78 -9 -85 -7 -131 -12 -177 -20 -18 -3
-48 -8 -65 -11 -172 -29 -456 -113 -593 -175 -82 -37 -118 -52 -124 -50 -2 1
-7 -2 -10 -7 -3 -5 -28 -20 -56 -34 -110 -57 -296 -174 -303 -191 -2 -4 -8 -8
-14 -8 -5 0 -15 -6 -22 -12 -7 -7 -30 -26 -51 -43 -21 -16 -44 -36 -52 -43 -7
-7 -13 -11 -13 -9 0 7 -217 -209 -260 -258 -89 -101 -220 -289 -286 -408 -74
-135 -179 -374 -187 -426 -1 -9 -6 -21 -10 -27 -3 -6 -14 -38 -22 -70 -15 -56
-19 -69 -30 -114 -16 -64 -44 -209 -50 -260 -2 -25 -7 -56 -9 -70 -15 -77 -22
-395 -12 -520 9 -120 17 -188 27 -245 5 -33 12 -73 15 -90 25 -149 108 -418
171 -555 70 -152 126 -253 212 -385 53 -80 46 -72 143 -190 108 -130 315 -334
377 -369 9 -6 27 -20 41 -33 14 -13 30 -23 37 -23 6 0 13 -3 15 -7 5 -12 67
-56 123 -88 28 -16 52 -32 55 -35 5 -5 66 -38 145 -79 69 -35 215 -100 215
-95 0 2 14 -3 31 -11 29 -15 162 -61 202 -70 10 -2 50 -13 90 -24 40 -10 86
-22 102 -25 17 -2 41 -7 55 -10 35 -8 136 -24 190 -30 25 -3 72 -8 105 -12 80
-10 421 -10 517 -1 106 11 121 13 273 43 103 21 110 22 110 24 0 1 8 3 17 5
27 5 117 34 193 63 39 15 72 27 75 27 3 1 24 11 48 23 23 12 42 20 42 17 0 -3
22 9 49 25 26 17 53 30 60 30 8 0 11 218 11 840 0 462 -4 840 -8 840 -4 0 -23
-16 -42 -35 -19 -19 -38 -35 -42 -35 -5 0 -19 -9 -31 -21 -12 -11 -35 -28 -52
-36 -16 -9 -32 -19 -35 -22 -3 -3 -16 -12 -29 -20 -93 -52 -111 -61 -111 -54
0 4 -4 3 -8 -3 -10 -15 -150 -69 -247 -95 -92 -25 -92 -25 -165 -34 -30 -4
-66 -9 -80 -11 -29 -5 -241 -5 -285 0 -246 29 -457 124 -624 281 -64 60 -181
205 -165 205 3 0 -3 12 -14 28 -112 164 -153 503 -88 746 52 199 180 398 326
506 18 14 38 30 44 35 6 6 34 24 61 40 227 132 472 181 755 151 41 -5 84 -9
95 -10 39 -5 131 -28 220 -57 165 -54 344 -154 493 -275 l32 -27 0 842 0 842
-67 30 c-38 17 -84 38 -103 47 -19 8 -37 16 -40 17 -3 1 -18 5 -35 10 -16 4
-32 12 -35 16 -3 4 -17 10 -30 13 -14 2 -63 16 -110 31 -47 14 -94 27 -105 30
-11 2 -49 11 -85 18 -36 8 -83 17 -105 21 -22 3 -51 8 -65 10 -71 13 -153 18
-337 21 -111 2 -203 1 -205 0z"/>
<path d="M1042 11960 c-4 -3 -8 -10 -9 -16 -1 -6 -4 -22 -7 -35 -2 -13 -7 -42
-11 -64 -4 -22 -9 -49 -12 -60 -14 -73 -55 -294 -58 -315 -1 -14 -4 -25 -5
-25 -2 0 -8 -30 -15 -84 -3 -25 -8 -48 -10 -51 -3 -4 -7 -22 -9 -41 -3 -19 -7
-43 -9 -54 -3 -11 -8 -40 -12 -65 -4 -25 -9 -54 -12 -65 -3 -19 -15 -82 -27
-150 -3 -16 -10 -52 -16 -80 -16 -83 -19 -99 -24 -130 -3 -16 -7 -39 -9 -50
-3 -11 -8 -40 -12 -65 -9 -53 -13 -76 -20 -110 -3 -14 -8 -40 -11 -59 -8 -49
-13 -71 -18 -89 -3 -9 -7 -39 -10 -65 -3 -27 -8 -52 -10 -56 -5 -7 -7 -19 -21
-98 -13 -80 -17 -100 -25 -138 -5 -22 -11 -58 -14 -80 -4 -23 -9 -52 -12 -65
-3 -14 -7 -36 -10 -50 -2 -14 -6 -34 -9 -46 -3 -12 -7 -39 -10 -60 -3 -21 -8
-50 -12 -64 -3 -14 -7 -34 -9 -45 -1 -11 -5 -31 -7 -45 -3 -14 -10 -52 -16
-85 -6 -33 -13 -71 -16 -85 -3 -14 -7 -38 -10 -55 -3 -16 -8 -41 -10 -55 -3
-14 -8 -36 -10 -50 -3 -14 -8 -40 -11 -59 -3 -18 -8 -43 -11 -55 -2 -11 -6
-33 -9 -49 -2 -15 -6 -37 -8 -50 -22 -118 -39 -205 -42 -222 -2 -11 -7 -33
-10 -50 -4 -16 -8 -43 -9 -60 -2 -16 -4 -31 -5 -32 -3 -4 -5 -12 -14 -63 -5
-25 -10 -54 -12 -65 -10 -51 -14 -72 -19 -100 -3 -16 -10 -52 -15 -80 -5 -27
-12 -66 -15 -85 -4 -19 -10 -53 -15 -75 -5 -22 -11 -56 -14 -75 -3 -19 -8 -45
-10 -56 -2 -12 -7 -38 -10 -58 -3 -21 -13 -72 -22 -114 -9 -42 -18 -88 -19
-102 -3 -26 -6 -44 -25 -140 -6 -30 -13 -66 -16 -80 -2 -14 -11 -59 -19 -100
-7 -41 -19 -102 -24 -135 -6 -33 -13 -70 -15 -81 -2 -12 -7 -37 -10 -55 -3
-19 -8 -45 -11 -59 -18 -88 -18 -90 1 -91 11 0 385 -1 833 -1 643 0 815 2 821
12 4 7 11 36 15 64 5 28 9 53 10 56 1 3 5 30 10 60 9 58 11 69 14 73 1 1 4 17
7 36 4 32 7 48 17 96 3 11 8 42 11 69 4 27 9 52 11 56 2 3 6 26 10 50 3 25 8
52 10 60 2 8 7 35 10 60 3 25 8 52 10 60 2 8 7 31 10 50 4 19 11 58 16 85 9
50 18 102 23 140 2 11 6 31 10 45 3 14 8 36 10 50 5 31 24 135 31 175 3 17 8
48 11 69 3 22 7 43 10 47 2 4 6 24 9 45 3 22 7 50 10 64 5 26 9 45 26 145 5
33 16 92 24 130 7 39 16 86 19 105 3 19 8 45 10 56 2 12 7 37 10 55 10 60 16
93 28 149 6 30 12 64 13 75 1 11 3 27 4 35 2 13 66 -158 75 -200 2 -8 6 -22 9
-30 6 -18 31 -93 32 -100 2 -10 107 -337 130 -405 28 -84 116 -356 119 -370 2
-12 45 -143 53 -165 3 -8 7 -19 8 -25 2 -5 13 -39 25 -75 12 -36 23 -72 25
-80 2 -8 20 -67 41 -130 21 -63 39 -117 39 -120 1 -3 4 -12 7 -20 7 -17 62
-192 63 -200 2 -12 68 -217 75 -235 5 -11 14 -38 21 -60 6 -22 15 -44 20 -49
6 -7 957 -13 1094 -7 16 1 25 18 48 89 15 48 46 143 68 212 22 69 42 132 44
140 2 8 15 47 28 85 13 39 25 75 27 80 4 14 4 14 60 190 29 88 53 167 55 175
2 8 4 16 5 18 2 1 3 5 4 10 2 10 115 359 131 407 23 65 135 419 135 427 1 4 7
23 16 43 8 19 11 35 8 35 -4 0 -2 6 3 13 6 6 25 59 43 117 17 58 42 136 54
174 23 69 23 69 30 35 4 -19 10 -47 12 -64 3 -16 7 -41 10 -55 3 -14 8 -36 10
-50 3 -14 11 -61 19 -105 8 -44 17 -98 20 -120 4 -22 9 -51 11 -65 26 -127 35
-177 36 -190 0 -8 7 -44 15 -80 7 -36 16 -81 18 -100 2 -19 7 -46 10 -60 3
-14 8 -40 10 -58 3 -19 12 -65 20 -104 8 -38 14 -73 13 -76 0 -4 1 -9 2 -12 1
-3 4 -16 6 -30 2 -14 11 -61 19 -105 9 -44 17 -91 19 -105 2 -14 9 -54 16 -90
7 -36 14 -74 16 -85 4 -30 34 -196 40 -225 3 -14 7 -38 10 -55 3 -16 18 -102
34 -190 16 -88 31 -172 33 -187 1 -15 6 -30 10 -34 3 -4 379 -7 834 -7 l828 0
-1 29 c-2 35 -11 100 -19 134 -4 14 -8 36 -10 50 -2 14 -13 72 -25 130 -11 58
-22 116 -25 130 -5 36 -24 140 -30 170 -3 14 -9 50 -15 80 -14 74 -19 100 -25
132 -4 15 -8 39 -10 55 -4 28 -11 67 -20 113 -3 14 -12 63 -21 110 -9 47 -18
94 -21 105 -2 11 -6 36 -9 55 -2 19 -7 46 -10 60 -3 14 -11 59 -19 100 -8 41
-18 98 -24 125 -6 28 -12 64 -15 80 -3 17 -7 39 -9 50 -2 11 -7 36 -10 55 -14
81 -17 96 -22 120 -3 14 -12 61 -20 105 -8 44 -17 94 -20 110 -3 17 -14 75
-25 130 -10 55 -21 111 -24 125 -3 14 -8 41 -10 60 -2 20 -7 47 -10 60 -7 30
-19 94 -32 170 -7 38 -14 79 -18 95 -2 6 -7 33 -11 60 -5 28 -10 52 -10 55 -1
3 -5 28 -10 55 -4 28 -10 59 -12 70 -13 57 -24 114 -28 145 -3 19 -8 46 -11
60 -3 14 -12 61 -20 105 -8 44 -17 94 -21 110 -3 17 -7 39 -9 50 -1 11 -10 56
-18 100 -8 44 -18 94 -21 110 -5 28 -8 41 -20 105 -3 14 -7 39 -10 55 -6 40
-14 85 -20 111 -3 12 -7 39 -10 60 -4 21 -10 55 -15 74 -5 19 -11 52 -14 72
-2 20 -7 45 -10 55 -2 10 -8 36 -11 58 -4 22 -8 49 -10 60 -2 11 -9 45 -15 75
-6 30 -13 69 -16 85 -7 44 -35 197 -40 220 -3 11 -7 34 -9 50 -3 17 -7 41 -10
55 -3 14 -8 39 -11 55 -3 17 -8 46 -12 65 l-8 35 -869 0 c-479 1 -876 -1 -882
-3 -7 -2 -13 -8 -13 -12 0 -5 -5 -21 -12 -37 -6 -15 -12 -30 -13 -33 0 -3 -9
-30 -20 -60 -11 -30 -19 -57 -20 -60 0 -3 -3 -9 -7 -15 -3 -5 -20 -53 -38
-105 -18 -52 -38 -108 -46 -125 -7 -16 -26 -68 -42 -115 -17 -47 -37 -103 -45
-125 -30 -77 -129 -350 -131 -360 -2 -5 -10 -27 -19 -49 -9 -21 -17 -42 -17
-46 0 -4 -20 -61 -44 -126 -24 -66 -68 -184 -97 -264 -28 -80 -57 -158 -64
-175 -7 -16 -20 -55 -30 -85 -10 -30 -21 -59 -24 -65 -4 -5 -20 -49 -36 -97
-16 -48 -32 -85 -36 -82 -7 4 -49 131 -56 168 -2 11 -8 25 -14 33 -6 7 -9 13
-6 13 3 0 -5 33 -19 73 -14 39 -27 79 -29 87 -2 8 -13 44 -25 80 -12 36 -23
72 -25 80 -2 8 -20 65 -40 125 -20 61 -38 117 -40 125 -2 8 -4 15 -5 15 -1 0
-3 7 -5 15 -2 8 -10 34 -19 58 -8 23 -16 44 -16 47 0 3 -2 10 -5 17 -2 7 -34
108 -70 223 -36 116 -69 217 -72 225 -3 8 -7 20 -8 25 -2 6 -17 54 -35 109
-18 54 -33 103 -35 110 -1 6 -5 18 -8 26 -7 18 -41 123 -42 130 -7 39 -79 241
-88 247 -13 8 -1735 11 -1745 3z"/>
<path d="M13080 11960 c-5 -3 -11 -19 -14 -35 -3 -17 -8 -41 -11 -55 -3 -14
-12 -61 -20 -105 -8 -44 -17 -91 -20 -105 -3 -14 -7 -38 -9 -55 -3 -16 -10
-55 -16 -85 -15 -75 -21 -110 -25 -142 -2 -15 -6 -35 -9 -45 -3 -10 -7 -34
-10 -53 -3 -19 -7 -44 -10 -55 -4 -20 -40 -212 -51 -270 -12 -69 -18 -101 -21
-120 -1 -11 -3 -20 -4 -20 -2 0 -4 -9 -5 -20 -3 -24 -8 -51 -41 -225 -14 -74
-27 -146 -29 -160 -1 -14 -5 -32 -8 -40 -3 -8 -9 -33 -12 -55 -4 -22 -8 -51
-10 -65 -2 -14 -9 -47 -15 -75 -5 -27 -12 -66 -15 -85 -3 -19 -7 -46 -10 -60
-3 -14 -7 -36 -10 -50 -3 -14 -9 -47 -15 -75 -5 -27 -12 -66 -15 -85 -3 -19
-8 -42 -10 -50 -2 -8 -6 -31 -9 -50 -3 -19 -8 -46 -11 -60 -7 -32 -17 -89 -20
-115 -1 -11 -3 -20 -4 -20 -2 0 -4 -11 -7 -25 -9 -51 -14 -86 -20 -125 -4 -22
-10 -48 -16 -58 -5 -9 -7 -21 -4 -25 3 -5 0 -28 -6 -53 -6 -24 -12 -53 -13
-64 -4 -24 -11 -62 -25 -135 -6 -30 -13 -68 -16 -85 -2 -16 -6 -41 -9 -55 -8
-37 -33 -170 -40 -210 -3 -19 -11 -55 -16 -79 -5 -24 -7 -46 -5 -49 3 -2 1
-13 -4 -23 -6 -9 -12 -33 -14 -51 -5 -32 -11 -67 -21 -118 -2 -13 -7 -42 -11
-64 -3 -22 -7 -43 -9 -46 -2 -3 -6 -24 -9 -46 -7 -42 -10 -59 -26 -139 -5 -27
-12 -66 -15 -85 -3 -19 -12 -67 -20 -107 -8 -39 -17 -89 -20 -110 -3 -21 -10
-58 -15 -83 -5 -25 -12 -59 -15 -76 -2 -17 -12 -66 -20 -110 -9 -43 -18 -92
-20 -109 -3 -16 -9 -50 -14 -75 -10 -46 -36 -187 -46 -249 -3 -19 -8 -38 -11
-43 -3 -4 1 -8 8 -9 18 -1 1618 -1 1645 0 17 1 23 9 28 44 4 23 13 74 20 112
8 39 16 84 18 100 3 17 17 94 31 171 15 78 28 155 31 172 2 17 6 39 9 49 3 10
8 34 10 53 4 30 15 88 41 225 3 17 8 46 11 65 2 19 7 42 9 50 3 8 7 33 10 55
4 22 8 47 10 55 3 8 7 33 10 55 3 22 8 51 11 65 3 14 8 36 10 50 2 14 6 34 9
46 3 12 7 39 10 60 3 21 8 50 12 64 3 14 7 35 9 48 1 12 7 46 13 75 6 28 13
68 15 87 3 19 8 46 10 60 3 14 7 36 10 50 2 14 9 54 16 90 7 36 14 76 16 90 3
14 7 36 9 50 3 14 8 36 10 50 3 14 7 36 10 50 6 30 17 100 18 118 0 14 16 16
18 2 3 -19 4 -25 16 -55 6 -16 19 -55 28 -85 9 -30 38 -122 65 -205 26 -82 82
-258 125 -390 101 -316 100 -313 141 -440 19 -60 38 -117 41 -125 3 -8 7 -21
9 -27 1 -7 19 -63 39 -125 20 -62 38 -117 40 -123 1 -5 5 -17 8 -25 6 -15 118
-368 164 -515 14 -44 31 -95 38 -114 l12 -34 534 1 c294 0 544 1 557 1 22 1
38 27 45 72 2 10 6 22 10 25 4 4 7 16 7 26 0 10 4 26 9 36 11 19 39 105 47
140 2 12 13 46 23 75 11 29 45 133 76 232 32 99 75 234 97 300 22 66 41 125
42 130 2 6 6 24 11 40 4 17 10 35 14 40 3 6 6 15 7 20 1 6 38 123 82 260 45
138 93 288 107 335 15 47 30 94 35 105 4 11 15 43 23 70 41 134 120 376 122
373 2 -2 6 -21 9 -43 7 -43 11 -61 21 -115 4 -19 9 -46 11 -60 2 -14 6 -34 8
-45 4 -18 10 -56 22 -129 3 -16 6 -32 8 -35 2 -3 7 -27 10 -53 4 -26 11 -69
16 -95 6 -26 13 -64 15 -83 5 -31 15 -85 45 -245 5 -27 12 -68 15 -90 4 -22 8
-44 9 -50 8 -34 16 -75 21 -107 2 -21 10 -59 15 -84 6 -26 8 -49 6 -52 -3 -2
-1 -12 4 -21 5 -10 11 -35 14 -57 2 -21 10 -64 16 -94 6 -30 13 -68 15 -85 3
-16 8 -43 11 -58 3 -16 7 -38 9 -50 2 -19 17 -96 39 -217 10 -53 37 -206 42
-235 2 -16 7 -41 10 -53 3 -13 7 -43 10 -65 3 -23 10 -46 14 -51 9 -9 1656
-13 1665 -4 3 3 0 29 -6 59 -6 30 -12 63 -14 74 -1 11 -5 34 -9 50 -8 43 -56
304 -62 340 -3 17 -7 41 -10 55 -3 14 -7 36 -10 50 -2 14 -8 45 -14 70 -5 25
-11 61 -14 80 -4 19 -8 46 -11 60 -3 14 -9 50 -15 80 -6 30 -12 66 -15 80 -3
14 -8 41 -11 60 -4 19 -8 44 -11 55 -2 11 -6 34 -8 50 -2 17 -11 62 -19 101
-8 38 -18 92 -22 120 -3 27 -8 52 -10 56 -3 4 -7 22 -9 40 -3 18 -7 44 -10 58
-2 13 -7 42 -11 64 -3 22 -8 44 -10 47 -2 4 -6 24 -9 45 -3 22 -7 50 -10 64
-3 14 -9 48 -15 75 -5 28 -11 59 -13 70 -5 24 -17 90 -23 125 -3 14 -16 86
-30 160 -14 74 -28 149 -30 165 -3 17 -9 50 -14 75 -5 25 -12 59 -15 75 -2 17
-7 41 -10 55 -2 14 -7 39 -10 55 -2 17 -7 41 -10 55 -2 14 -7 39 -10 55 -3 17
-12 66 -21 110 -8 44 -17 91 -19 105 -6 36 -63 340 -70 370 -3 14 -8 41 -11
60 -8 53 -33 190 -44 240 -5 25 -14 72 -20 105 -5 33 -12 71 -15 85 -3 14 -7
39 -10 55 -3 17 -10 53 -15 80 -5 28 -12 64 -15 80 -2 17 -9 55 -15 85 -7 30
-14 69 -16 85 -9 54 -12 70 -23 119 -7 27 -9 51 -7 54 3 2 1 12 -3 21 -5 9
-12 36 -16 61 -9 62 -12 77 -25 140 -14 75 -21 110 -25 142 -2 15 -6 35 -9 45
-6 19 -15 71 -21 113 -5 40 -10 55 -17 60 -3 3 -399 5 -879 5 l-873 -1 -49
-134 c-27 -74 -52 -144 -57 -155 -16 -41 -35 -90 -37 -100 -1 -5 -30 -84 -64
-175 -33 -91 -67 -184 -75 -208 -7 -23 -17 -48 -21 -55 -4 -7 -8 -16 -9 -22
-3 -15 -174 -485 -190 -522 -8 -17 -14 -37 -14 -45 0 -8 -3 -17 -6 -21 -3 -3
-19 -43 -35 -89 -16 -46 -33 -92 -38 -103 -5 -11 -19 -47 -30 -80 -19 -57 -94
-264 -108 -295 -3 -8 -7 -21 -9 -28 -6 -29 -12 -20 -29 45 -10 38 -22 75 -26
83 -6 13 -31 94 -34 110 0 3 -3 10 -6 15 -4 6 -10 26 -14 45 -4 19 -10 40 -14
45 -3 6 -6 12 -7 15 -4 20 -18 67 -23 75 -3 6 -6 15 -7 21 -2 10 -110 352
-144 454 -30 90 -102 314 -104 325 -3 16 -77 248 -86 270 -9 22 -96 297 -130
410 -12 39 -27 81 -35 95 l-13 25 -867 0 c-477 0 -871 -2 -875 -5z"/>
</g>
</svg>
