<?xml version="1.0" encoding="utf-8"?>
<!-- Generator: Adobe Illustrator 25.1.0, SVG Export Plug-In . SVG Version: 6.00 Build 0)  -->
<svg version="1.1" id="L1" xmlns="http://www.w3.org/2000/svg" xmlns:xlink="http://www.w3.org/1999/xlink" x="0px" y="0px"
	 viewBox="0 0 1000 1000" style="enable-background:new 0 0 1000 1000;" xml:space="preserve">
<style type="text/css">
	.st0{fill:none;stroke:#268B00;stroke-width:4;stroke-linecap:round;stroke-linejoin:round;stroke-miterlimit:10;}
	.st1{font-family:'MyriadPro-Regular';}
	.st2{font-size:12px;}
</style>
<g id="STree">
	<g>
		<g>
			<g>
				<path class="st0" d="M338.54,592.23c0,0,1.31,21.59,1.31,34.94s-3.48,26.1-3.48,26.1s-7.54-10.44-15.66-4.35
					c-8.12,6.09,3.19,22.04,9.57,22.04s11.6-5.8,11.6-5.8s0.58,12.18,7.83,12.18c11.6,0,25.81-19.72,25.81-39.74"/>
			</g>
			<g>
				<path class="st0" d="M569.09,555.44c0,0,3.04,12.71,5.52,17.12c2.49,4.42,20.16,38.94,20.16,38.94s-5.25-11.05-8.84-8.84
					c-3.59,2.21-3.59,17.4-1.93,24.03c1.66,6.63,7.73,14.64,18.51,14.64c10.77,0,16.57-3.59,23.75-6.63s14.57-3.58,14.09,2.76
					c5.25-8.29,9.67-11.88,9.67-22.37c0-10.5-7.87-16.57-14.16-16.57s-9.32,4.14-7.39,12.15c-4.7-14.09-6.91-16.57-21.27-33.42
					s-26.94-50.7-26.94-50.7"/>
			</g>
			<g>
				<path class="st0" d="M396.89,479.56c0,0,2.12,9.89,2.12,18.37s-3.77,19.55-3.77,19.55s-5.18-2.36-10.84-2.36
					s-28.5,9.19-45.7,24.74c-17.2,15.55-25.21,25.44-28.27,29.21c-3.06,3.77-16.25,32.04-16.25,32.04s15.08,1.41,19.79,2.83
					c4.71,1.41,14.61,8.01,22.38,9.42s25.21,7.07,35.34,9.42c10.13,2.36,24.5,4.95,35.81,10.37c11.31,5.42,28.74,17.2,32.98,25.44
					c-0.71-14.61,2.12-26.62,6.6-39.81c4.48-13.19,15.31-39.34,16.25-51.12c1.65,13.19,5.42,48.06,10.13,64.31
					s27.41,80.81,52.14,111.87c0,0,4.41-5.18,9.25-8.81c4.84-3.63,20.9-18.65,27.12-24.53c6.22-5.87,16.24-17.96,24.87-24.53
					c8.64-6.56,26.77-19,26.77-19S580.44,639,555.56,621.9c-24.87-17.1-50.09-42.49-50.09-42.49l54.24-21.76
					c0,0,15.89-25.05,20.55-31.09c4.66-6.05,18.65-20.38,18.65-20.38s-1.55-9.5-50.09-9.5c-48.54,0-71.16,6.74-87.06,11.92
					c-0.52-14.34,4.32-24.18,4.32-24.18"/>
			</g>
			<g>
				<path class="st0" d="M523.48,753.11c0,11.93-9.16,34.5-11.5,42.59c-2.34,8.09-10.43,28.54,9.16,28.54
					c19.59,0,59.84-0.64,68.14,3.62s24.06,12.35,20.02-12.78s-5.11-35.56-12.56-47.27c19.59,4.9,38.97,7.88,46,17.67
					c8.94,2.56,10.22-15.97,12.14-23.85c1.92-7.88,11.5-23.85,11.07-32.58s-2.77-4.68-11.93-14.27
					c-9.16-9.58-9.16-14.05-17.67-19.17s-18.02-11.39-22.75-14.59c-4.72-3.19-5.52-10.23-5.52-10.23"/>
			</g>
			<g>
				<path class="st0" d="M665.83,731.58c0,0,12.98,14.36,38.52,14.36s30.15-12.77,33.69-16.3c3.53-3.53,10.87-12.22,21.73-12.22
					s17.66,5.98,17.66,15.62c0,9.64-5.16,21.87-20.65,37.35s-35.32,19.83-47.27,19.83c-11.95,0-19.83-2.99-27.98-4.62
					c-8.15-1.63-24.45-2.44-24.72-3.8c-0.27-1.36,0-7.61,0-7.61"/>
			</g>
			<g>
				<path class="st0" d="M528.5,825.74c0,0,8.91,17.18-0.02,41.11c-8.93,23.92-22.51,23.78-27.05,25.85
					c-4.54,2.07-15.25,5.9-19.06,16.08c-3.8,10.18-0.58,18.63,8.46,22.01s22.29,2.82,42.22-6.27s30.93-26.15,35.11-37.34
					c4.18-11.2,4.14-19.62,5.46-27.83c1.32-8.21,6.26-23.76,5.09-24.49s-7.13-2.66-7.13-2.66"/>
			</g>
			<g>
				<path class="st0" d="M515.99,449.42c0,0-6.07-36-9.98-51.18c-3.9-15.18-11.28-50.75-43.38-50.75S398,390,388.46,407.35
					c-9.54,17.35-11.28,46.41-1.74,56.82c-6.35-12.58-5.21-14.75-1.74-13.01c3.47,1.74,7.37,11.71,13.01,13.01
					c5.64,1.3,29.93-0.87,59.43-8.24c29.5-7.37,41.64-9.98,46.41-12.15c4.77-2.17,7.37-7.37,7.37-7.37l-5.21,1.3l-6.51-15.18
					c0,0-18.22,13.01-23.86,25.59c0,0-6.94-10.84-3.04-25.59l-18.73,29.06c0,0-3.83-13.45-2.53-26.89
					c-11.71,11.71-22.12,29.5-22.12,29.5s-1.74-22.99-1.74-28.63c-9.54,12.58-11.71,31.71-16.48,32.99
					c-4.77,1.28-7.81-21.28-11.28-21.28c-3.47,0-4.77,21.28-4.77,21.28"/>
			</g>
			<g>
				<path class="st0" d="M496.55,370.17l-6.59,10.96l-17.18-4.65l2.47-26.86c0,0-7.32,14.34-9.14,19.79
					c-1.82,5.46-1.01,7.68-1.01,7.68l-18.19,0.4v-13.34l2.84-14.54c0,0-8.29,30.5-11.12,33.33c-2.83,2.83-7.68,1.82-9.29,2.63
					c-1.62,0.81-5.05,3.03-5.05,3.03v-24.13"/>
			</g>
			<g>
				<polyline class="st0" points="545.83,299.84 522.46,310.51 546.27,300.61 523.03,311.4 				"/>
			</g>
			<g>
				<path class="st0" d="M504.39,221.58c0,0-129.94,40.75-167.22,65.06s-87.72,56.11-79.5,57.75
					c8.22,1.64,159.87-92.9,217.77-107.63c-52.31,31.49-183.85,86.34-210.77,124.43c73.64-46.22,231.88-126.97,231.88-126.97
					s-238.99,97-248.64,131.03c45.2-11.17,277.89-140.68,277.89-140.68s-148.67,41.5-181.23,62.95
					c-7.34,21.48-65.89,53.51-65.89,53.51l233.57-119.46c0,0,142.1,127.7,163.66,163.05c-27.9,16.33-25.05,25.52-25.05,25.52
					l5.39,16.49c0,0-15.53-50.36-34.87-77.01c-19.34-26.66-94.16-100.53-94.16-100.53s26.31,66.48,48.51,98.39
					c22.19,31.91,79.26,98.17,79.26,98.17s-25.68-94.48-54.53-135.69c-28.85-41.21-13.93-46.92-53.41-74.19
					c14.1,33.29,87.97,161.05,110.48,186.1c0,0-110.05-132.84-124.3-175.96c0,0,22.53,52.65,35.53,74.67
					c13,22.02,76.72,141.23,81.48,170.39c0,0-44.39-158.79-64.04-191.15c-19.66-32.36-55.8-71.36-55.8-71.36
					s53.74,88.52,66.26,108.43c12.52,19.91,49.77,94.79,49.77,94.79s-33.45-185.47-134.11-196.25l80.52,100.28
					c0,0-4.49,32.76-13.94,47.18s-32.39,47.52-67.37,70.68s-54.61,32.15-82.5,32.15s-46.57-12.53-58.27-24.23
					s-25.65-40.87-25.65-74.58c0-50.35,17.84-72.22,25.82-91.66"/>
			</g>
		</g>
		<g>
			<path class="st0" d="M440.46,286.64c-3.88,0.14-5.29,3.32-6.42,3.67c-1.13,0.35,0.21,2.75,0,4.94c-0.21,2.19,7.13,3.6,7.13,3.6
				s4.59-3.74,4.59-6.99s-2.06-4.07-5.57-3.95c-3.51,0.12-5.22,3.32-5.22,3.32l0.28,3.66l5.29,2.4c0,0,4-1.84,3.81-5.29
				c-0.19-3.45-2.65-3.1-4.67-2.96c-2.03,0.14-3.44,0.86-3.44,2.19s2.12,4.09,3.81,4.09c1.69,0,3.32-1.27,2.82-2.96
				c-0.49-1.69-4.8-1.69-4.8-1.69l1.27,2.08h1.27"/>
		</g>
		<g>
			<polyline class="st0" points="450.77,282.39 472.49,301.53 451.44,280.93 473.38,300.52 			"/>
		</g>
		<g>
			<path class="st0" d="M540.43,312.6c-2.62,0-7.21,5.3-7.21,8.3c0,3,1.64,7.7,4.37,7.7c2.73,0,9.56-8.08,9.45-11.41
				c-0.11-3.33-6.91-3.66-6.91-3.66s-5.65,4.1-5.43,7.07c0.22,2.98,0.44,6.42,2.73,6.36c2.29-0.05,8.36-6.55,7.92-9.67
				s-4.04-2.73-5.21-2.18s-4.18,3.55-4.18,5.49s0.16,5.05,1.31,5c1.15-0.05,6.77-6.5,6.72-8.08s-1.86-1.47-3.44-1.04
				c-1.58,0.44-3.66,4.12-3.66,4.12l0.6,3.19l4.7-5.9l-2.05-0.11l-1.99,3.66"/>
		</g>
		<g>
			<path class="st0" d="M616.93,217.28c0,0-14.79-29.58-14.79-52.2s14.78-37.31,21.31-43.01c6.53-5.7,16.1-10.92,23.93-10.92
				c7.83,0,19.14,10.44,20.01,44.37c0.87,33.93-4.22,44.37-4.22,44.37s13.79-42.63,39.89-64.38c26.1-21.75,39.54-24.36,55-24.36
				s29.39,15.66,29.39,46.98c0,25.23-10.06,36.54-10.06,41.76s6.58,11.31,16.14,11.31"/>
		</g>
		<g>
			<path class="st0" d="M521.23,122.45c0,0-13.95-0.87-16.11,0s-11.73,19.14-11.73,39.15s10.44,38.28,23.49,38.28
				s16.53-15.66,20.88-20.01c4.35-4.35,25.23-26.1,26.1-34.8c0.87-8.7,3.48-20.88,3.48-20.88s6.09,1.74,6.09,20.88
				s-4.06,54.81,4.93,54.81"/>
		</g>
		<g>
			<path class="st0" d="M313.31,201.62c0,0-6.96-41.76,9.57-72.21c16.53-30.45,26.1-35.67,53.07-37.41
				c26.97-1.74,29.14,23.92,30.01,29.14s-24.36,53.97-23.49,66.99c-0.87-12.18,1.74-27.84,5.22-37.41
				c3.48-9.57,8.7-20.01,12.18-23.49c3.48-3.48,20.88-28.71,37.41-28.71s30.45,14.79,31.32,33.93s-21.75,39.15-21.75,53.94
				c0,14.79,5.22,10.44,5.22,10.44"/>
		</g>
	</g>
	<text transform="matrix(1 0 0 1 74.2427 91.9163)"><tspan x="0" y="0" class="st1 st2">RunningStitch{</tspan><tspan x="0" y="14.4" class="st1 st2">max_length: 1mm,</tspan><tspan x="0" y="28.8" class="st1 st2">max_var: 0.15mm,</tspan><tspan x="0" y="43.2" class="st1 st2">loop: back</tspan><tspan x="0" y="57.6" class="st1 st2">}</tspan></text>
</g>
</svg>
