<?xml version="1.0" encoding="utf-8"?>
<!-- Generator: Adobe Illustrator 25.1.0, SVG Export Plug-In . SVG Version: 6.00 Build 0)  -->
<svg version="1.1" id="L1" xmlns="http://www.w3.org/2000/svg" xmlns:xlink="http://www.w3.org/1999/xlink" x="0px" y="0px"
	 viewBox="0 0 1500 2000" style="enable-background:new 0 0 1500 2000;" xml:space="preserve">
<style type="text/css">
	.st0{fill:none;stroke:#268B00;stroke-width:8;stroke-linecap:round;stroke-linejoin:round;stroke-miterlimit:10;}
	.st1{fill:none;stroke:#268B00;stroke-width:16;stroke-linecap:round;stroke-linejoin:round;stroke-miterlimit:10;}
	.st2{font-family:'ArialMT';}
	.st3{font-size:27.3795px;}
</style>
<g id="STree">
	<g>
		<g>
			<g>
				<path class="st0" d="M422.3,1208.5c0,0,3,49.3,3,79.7s-7.9,59.6-7.9,59.6s-17.2-23.8-35.7-9.9s7.3,50.3,21.8,50.3
					s26.5-13.2,26.5-13.2s1.3,27.8,17.9,27.8c26.5,0,58.9-45,58.9-90.7"/>
			</g>
			<g>
				<path class="st0" d="M948.3,1124.6c0,0,6.9,29,12.6,39.1c5.7,10.1,46,88.8,46,88.8s-12-25.2-20.2-20.2c-8.2,5-8.2,39.7-4.4,54.8
					c3.8,15.1,17.6,33.4,42.2,33.4c24.6,0,37.8-8.2,54.2-15.1s33.2-8.2,32.1,6.3c12-18.9,22.1-27.1,22.1-51c0-24-18-37.8-32.3-37.8
					c-14.4,0-21.3,9.4-16.9,27.7c-10.7-32.1-15.8-37.8-48.5-76.3c-32.8-38.4-61.5-115.7-61.5-115.7"/>
			</g>
			<g>
				<path class="st0" d="M555.4,951.5c0,0,4.8,22.6,4.8,41.9s-8.6,44.6-8.6,44.6s-11.8-5.4-24.7-5.4s-65,21-104.3,56.4
					c-39.2,35.5-57.5,58-64.5,66.6c-7,8.6-37.1,73.1-37.1,73.1s34.4,3.2,45.2,6.5c10.7,3.2,33.3,18.3,51.1,21.5
					c17.7,3.2,57.5,16.1,80.6,21.5c23.1,5.4,55.9,11.3,81.7,23.7c25.8,12.4,65.6,39.2,75.2,58c-1.6-33.3,4.8-60.7,15.1-90.8
					c10.2-30.1,34.9-89.8,37.1-116.6c3.8,30.1,12.4,109.7,23.1,146.7c10.7,37.1,62.5,184.4,119,255.2c0,0,10.1-11.8,21.1-20.1
					c11-8.3,47.7-42.6,61.9-56c14.2-13.4,37.1-41,56.7-56c19.7-15,61.1-43.4,61.1-43.4s-75.7-63.8-132.4-102.8
					c-56.7-39-114.3-96.9-114.3-96.9l123.8-49.6c0,0,36.3-57.2,46.9-70.9c10.6-13.8,42.6-46.5,42.6-46.5s-3.5-21.7-114.3-21.7
					c-110.7,0-162.4,15.4-198.6,27.2c-1.2-32.7,9.9-55.2,9.9-55.2"/>
			</g>
			<g>
				<path class="st0" d="M844.3,1575.6c0,27.2-20.9,78.7-26.2,97.2c-5.3,18.5-23.8,65.1,20.9,65.1c44.7,0,136.5-1.5,155.5,8.3
					c18.9,9.7,54.9,28.2,45.7-29.2c-9.2-57.3-11.7-81.1-28.7-107.9c44.7,11.2,88.9,18,105,40.3c20.4,5.8,23.3-36.4,27.7-54.4
					c4.4-18,26.2-54.4,25.3-74.3c-1-19.9-6.3-10.7-27.2-32.6c-20.9-21.9-20.9-32.1-40.3-43.7s-41.1-26-51.9-33.3
					c-10.8-7.3-12.6-23.3-12.6-23.3"/>
			</g>
			<g>
				<path class="st0" d="M1169.1,1526.5c0,0,29.6,32.8,87.9,32.8s68.8-29.1,76.9-37.2c8.1-8.1,24.8-27.9,49.6-27.9
					c24.8,0,40.3,13.6,40.3,35.6s-11.8,49.9-47.1,85.2c-35.3,35.3-80.6,45.2-107.9,45.2c-27.3,0-45.2-6.8-63.8-10.5
					c-18.6-3.7-55.8-5.6-56.4-8.7c-0.6-3.1,0-17.4,0-17.4"/>
			</g>
			<g>
				<path class="st0" d="M855.7,1741.3c0,0,20.3,39.2,0,93.8c-20.4,54.6-51.4,54.3-61.7,59c-10.4,4.7-34.8,13.5-43.5,36.7
					c-8.7,23.2-1.3,42.5,19.3,50.2s50.9,6.4,96.3-14.3c45.5-20.7,70.6-59.7,80.1-85.2c9.5-25.6,9.4-44.8,12.5-63.5
					s14.3-54.2,11.6-55.9c-2.7-1.7-16.3-6.1-16.3-6.1"/>
			</g>
			<g>
				<path class="st0" d="M827.2,882.7c0,0-13.8-82.1-22.8-116.8c-8.9-34.6-25.7-115.8-99-115.8s-147.5,97-169.2,136.6
					c-21.8,39.6-25.7,105.9-4,129.6c-14.5-28.7-11.9-33.7-4-29.7c7.9,4,16.8,26.7,29.7,29.7c12.9,3,68.3-2,135.6-18.8
					s95-22.8,105.9-27.7c10.9-5,16.8-16.8,16.8-16.8l-11.9,3l-14.9-34.6c0,0-41.6,29.7-54.4,58.4c0,0-15.8-24.7-6.9-58.4l-42.7,66.3
					c0,0-8.7-30.7-5.8-61.4c-26.7,26.7-50.5,67.3-50.5,67.3s-4-52.5-4-65.3c-21.8,28.7-26.7,72.4-37.6,75.3
					c-10.9,2.9-17.8-48.6-25.7-48.6S551,903.5,551,903.5"/>
			</g>
			<g>
				<path class="st0" d="M782.8,701.9l-15,25l-39.2-10.6l5.6-61.3c0,0-16.7,32.7-20.9,45.2c-4.2,12.5-2.3,17.5-2.3,17.5l-41.5,0.9
					v-30.4L676,655c0,0-18.9,69.6-25.4,76c-6.5,6.5-17.5,4.2-21.2,6c-3.7,1.8-11.5,6.9-11.5,6.9v-55.1"/>
			</g>
			<g>
				<polyline class="st0" points="895.3,541.4 841.9,565.7 896.3,543.2 843.2,567.8 				"/>
			</g>
			<g>
				<path class="st0" d="M800.7,362.8c0,0-296.5,93-381.5,148.4C334.1,566.8,219,639.3,237.8,643s364.8-212,496.9-245.6
					c-119.4,71.8-419.5,197-480.9,283.9c168-105.5,529.1-289.7,529.1-289.7S237.5,613,215.5,690.6c103.1-25.5,634-321,634-321
					s-339.2,94.7-413.5,143.6c-16.7,49-150.3,122.1-150.3,122.1l532.9-272.6c0,0,324.2,291.4,373.4,372
					c-63.7,37.3-57.2,58.2-57.2,58.2l12.3,37.6c0,0-35.4-114.9-79.6-175.7c-44.1-60.8-214.8-229.4-214.8-229.4s60,151.7,110.7,224.5
					c50.6,72.8,180.8,224,180.8,224s-58.6-215.6-124.4-309.6c-65.8-94-31.8-107.1-121.9-169.3c32.2,76,200.7,367.5,252.1,424.6
					c0,0-251.1-303.1-283.6-401.5c0,0,51.4,120.1,81.1,170.4c29.7,50.2,175,322.2,185.9,388.8c0,0-101.3-362.3-146.1-436.1
					c-44.9-73.8-127.3-162.8-127.3-162.8s122.6,202,151.2,247.4c28.6,45.4,113.6,216.3,113.6,216.3s-76.3-423.2-306-447.8
					l183.7,228.8c0,0-10.2,74.7-31.8,107.6c-21.6,32.9-73.9,108.4-153.7,161.3c-79.8,52.8-124.6,73.4-188.2,73.4
					s-106.3-28.6-133-55.3c-26.7-26.7-58.5-93.2-58.5-170.2c0-114.9,40.7-164.8,58.9-209.1"/>
			</g>
		</g>
		<g>
			<path class="st0" d="M654.9,511.3c-8.9,0.3-12.1,7.6-14.6,8.4s0.5,6.3,0,11.3s16.3,8.2,16.3,8.2s10.5-8.5,10.5-15.9
				c0-7.4-4.7-9.3-12.7-9c-8,0.3-11.9,7.6-11.9,7.6l0.6,8.4l12.1,5.5c0,0,9.1-4.2,8.7-12.1c-0.4-7.9-6-7.1-10.7-6.8
				c-4.6,0.3-7.8,2-7.8,5c0,3,4.8,9.3,8.7,9.3s7.6-2.9,6.4-6.8c-1.1-3.9-11-3.9-11-3.9l2.9,4.7h2.9"/>
		</g>
		<g>
			<polyline class="st0" points="678.4,501.6 727.9,545.3 679.9,498.3 730,543 			"/>
		</g>
		<g>
			<path class="st0" d="M882.9,570.5c-6,0-16.5,12.1-16.5,18.9c0,6.8,3.7,17.6,10,17.6c6.2,0,21.8-18.4,21.6-26
				c-0.3-7.6-15.8-8.4-15.8-8.4s-12.9,9.4-12.4,16.1c0.5,6.8,1,14.6,6.2,14.5c5.2-0.1,19.1-14.9,18.1-22.1c-1-7.1-9.2-6.2-11.9-5
				c-2.7,1.3-9.5,8.1-9.5,12.5c0,4.4,0.4,11.5,3,11.4c2.6-0.1,15.4-14.8,15.3-18.4s-4.2-3.4-7.8-2.4c-3.6,1-8.4,9.4-8.4,9.4l1.4,7.3
				l10.7-13.5l-4.7-0.3l-4.5,8.4"/>
		</g>
		<g>
			<path class="st1" d="M1057.5,353c0,0-33.7-67.5-33.7-119.1s33.7-85.1,48.6-98.1c14.9-13,36.7-24.9,54.6-24.9
				s43.7,23.8,45.7,101.2s-9.6,101.2-9.6,101.2s31.5-97.3,91-146.9c59.6-49.6,90.2-55.6,125.5-55.6s67.1,35.7,67.1,107.2
				c0,57.6-23,83.4-23,95.3s15,25.8,36.8,25.8"/>
		</g>
		<g>
			<path class="st1" d="M839.1,136.7c0,0-31.8-2-36.8,0c-4.9,2-26.8,43.7-26.8,89.3s23.8,87.3,53.6,87.3c29.8,0,37.7-35.7,47.6-45.7
				c9.9-9.9,57.6-59.6,59.6-79.4s7.9-47.6,7.9-47.6s13.9,4,13.9,47.6s-9.3,125.1,11.2,125.1"/>
		</g>
		<g>
			<path class="st1" d="M364.7,317.3c0,0-15.9-95.3,21.8-164.8s59.6-81.4,121.1-85.4c61.5-4,66.5,54.6,68.5,66.5
				c2,11.9-55.6,123.1-53.6,152.8c-2-27.8,4-63.5,11.9-85.4s19.9-45.7,27.8-53.6c7.9-7.9,47.6-65.5,85.4-65.5s69.5,33.7,71.5,77.4
				c2,43.7-49.6,89.3-49.6,123.1s11.9,23.8,11.9,23.8"/>
		</g>
	</g>
	<text transform="matrix(1 0 0 1 43.5591 126.4404)" class="st2 st3">RunningStitch{</text>
	<text transform="matrix(1 0 0 1 43.5591 159.2949)" class="st2 st3">max_length: 1mm,</text>
	<text transform="matrix(1 0 0 1 43.5591 192.1504)" class="st2 st3">max_var: 0.15mm,</text>
	<text transform="matrix(1 0 0 1 43.5591 225.0058)" class="st2 st3">loop: back</text>
	<text transform="matrix(1 0 0 1 43.5591 257.8604)" class="st2 st3">}</text>
</g>
</svg>
