<?xml version="1.0" encoding="utf-8"?>
<!-- Generator: Adobe Illustrator 25.1.0, SVG Export Plug-In . SVG Version: 6.00 Build 0)  -->
<svg version="1.1" id="Layer_1" xmlns="http://www.w3.org/2000/svg" xmlns:xlink="http://www.w3.org/1999/xlink" x="0px" y="0px"
	 viewBox="0 0 150 150" style="enable-background:new 0 0 150 150;" xml:space="preserve">
<style type="text/css">
	.st0{opacity:0.7;fill:#FFFFFF;enable-background:new    ;}
	.st1{fill:#FFFFFF;}
	.st2{opacity:0.8;fill:#FFFFFF;enable-background:new    ;}
</style>
<g>
	<path class="st0" d="M40.7,47l8.3,68.8c0,0,2.1,10.2,26,9.7c23.9-0.5,27.4-9.3,27.4-9.3l7-70.6c0,0-14,4.8-34.4,4.8
		S40.7,47,40.7,47z"/>
	<path class="st1" d="M115.8,43.8v-4.2c0,0-1.4-2-3.2-2.1s-4.2,0.1-4.8-0.4c-0.5-0.5-1.4-4.4-1.4-4.4s-2-2.7-19.1-5.9l-0.7-2.1H62.2
		l-0.4,2.6c0,0-14.1,1.5-19,6.3c0,0-0.3,4.1-1,4.3c-0.7,0.2-2.6,0.4-5.8,0.4c0,0-1.7,0.9-1.7,3.3c-0.1,2.4,0,3,0,3l3.1,0.7
		c0,0,3.8,5.3,37.7,5.3s37.4-6.3,37.4-6.3L115.8,43.8z"/>
	<path class="st2" d="M74.7,119.7L74.7,119.7c-1.5,0-2.7-1.2-2.7-2.7V59.6c0-1.5,1.2-2.7,2.7-2.7l0,0c1.5,0,2.7,1.2,2.7,2.7V117
		C77.4,118.5,76.2,119.7,74.7,119.7z"/>
	<path class="st2" d="M66.5,117.4L66.5,117.4c-1.2,0-2.3-1-2.4-2.4l-2.5-52.2c-0.1-1.3,0.9-2.4,2.1-2.5l0,0c1.2,0,2.3,1,2.4,2.4
		l2.5,52.2C68.7,116.3,67.7,117.4,66.5,117.4z"/>
	<path class="st2" d="M84.6,117.4L84.6,117.4c1.2,0,2.3-1.1,2.3-2.4l1.7-52.2c0-1.3-0.9-2.4-2.2-2.4l0,0c-1.2,0-2.3,1.1-2.3,2.4
		L82.5,115C82.4,116.3,83.4,117.4,84.6,117.4z"/>
	<path class="st2" d="M57.9,118.6L57.9,118.6c-1.1,0-2-1.2-2.2-2.7l-4.6-59c-0.1-1.5,0.7-2.8,1.7-2.8l0,0c1.1,0,2,1.2,2.2,2.7
		l4.6,59C59.7,117.4,59,118.6,57.9,118.6z"/>
	<path class="st2" d="M93,119.3L93,119.3c1.1,0,2-1.2,2.1-2.8l2.8-59.2c0.1-1.5-0.7-2.7-1.8-2.7l0,0c-1.1,0-2,1.2-2.1,2.8l-2.8,59.2
		C91.1,118,91.9,119.3,93,119.3z"/>
</g>
<g>
	<path class="st1" d="M75,8c36.9,0,67,30.1,67,67s-30.1,67-67,67S8,111.9,8,75S38.1,8,75,8 M75,0C33.6,0,0,33.6,0,75s33.6,75,75,75
		s75-33.6,75-75S116.4,0,75,0L75,0z"/>
</g>
</svg>
