<?xml version="1.0" encoding="utf-8"?>
<!-- Generator: Adobe Illustrator 25.1.0, SVG Export Plug-In . SVG Version: 6.00 Build 0)  -->
<svg version="1.1" id="Layer_1" xmlns="http://www.w3.org/2000/svg" xmlns:xlink="http://www.w3.org/1999/xlink" x="0px" y="0px"
	 viewBox="0 0 100 100" style="enable-background:new 0 0 100 100;" xml:space="preserve">
<style type="text/css">
	.st0{opacity:0.61;fill:#C12D2D;}
	.st1{fill:#C12D2D;}
	.st2{opacity:0.9;fill:#FFF5F5;}
</style>
<g>
	<path class="st0" d="M94.5,16H58.5l0.1,0l-10-4.1L5.5,11.8c-3,0-5.5,1.8-5.5,3.9V16v4.1v61.1c0,3,2.5,5.5,5.5,5.5h9v1.5h11.6v-1.5
		h48.2v1.5h11.3v-1.5h9c3,0,5.5-2.4,5.5-5.5V21.5C100,18.4,97.6,16,94.5,16z"/>
	<path class="st1" d="M48.6,20.2L0,20.1v-4.4c0-2.2,2.5-3.9,5.5-3.9l43.1,0.1l10,4.1L48.6,20.2z"/>
	<polygon class="st1" points="14.5,41 14.5,88.2 26.1,88.2 26.1,51.2 74.2,51.2 74.2,88.2 85.5,88.2 85.5,41 	"/>
</g>
<polygon class="st2" points="50,26.4 31.6,46.1 41.4,46.1 41.4,73.6 58.6,73.6 58.6,46.1 68.4,46.1 "/>
</svg>
