<?xml version="1.0" encoding="utf-8"?>
<!-- Generator: Adobe Illustrator 25.1.0, SVG Export Plug-In . SVG Version: 6.00 Build 0)  -->
<svg version="1.1" id="Layer_1" xmlns="http://www.w3.org/2000/svg" xmlns:xlink="http://www.w3.org/1999/xlink" x="0px" y="0px"
	 viewBox="0 0 811.3 370.6" style="enable-background:new 0 0 811.3 370.6;" xml:space="preserve">
<polygon points="596.4,247.1 638.1,247.1 615.2,123.5 571.3,123.5 552.6,174.8 536.2,123.5 492.3,123.5 469.4,247.1 511.2,247.1 
	521.5,189.9 539.8,247.1 567.7,247.1 586,189.9 "/>
<path d="M419.1,249.7c10.5,0,20-2.3,28.2-6.9v-41.9c-6.2,5.7-14.9,9.5-24.9,9.5c-15.4,0-26.5-10.7-26.5-25.1s11.1-25.1,26.5-25.1
	c10,0,18.7,3.8,24.9,9.5v-42.1c-8.2-4.1-17.7-6.7-28.2-6.7c-37.9,0-65.5,27.5-65.5,64.4S381.2,249.7,419.1,249.7"/>
<polygon points="295.7,247.1 337.5,247.1 314.6,123.5 270.6,123.5 252,174.8 235.6,123.5 191.7,123.5 168.8,247.1 210.5,247.1 
	220.9,189.9 239.2,247.1 267,247.1 285.4,189.9 "/>
</svg>
