<?xml version="1.0" encoding="utf-8"?>
<!-- Generator: Adobe Illustrator 25.1.0, SVG Export Plug-In . SVG Version: 6.00 Build 0)  -->
<svg version="1.1" id="Layer_1" xmlns="http://www.w3.org/2000/svg" xmlns:xlink="http://www.w3.org/1999/xlink" x="0px" y="0px"
	 viewBox="0 0 1400 400" style="enable-background:new 0 0 1400 400;" xml:space="preserve">
<style type="text/css">
	.st0{fill:#FFFFFF;}
</style>
<path class="st0" d="M1209.9,138.2v123.5h79.1v-33.1h-36.9v-13h34.4v-31.4h-34.4v-12.9h36.9v-33.1
	C1289.1,138.2,1209.9,138.2,1209.9,138.2z M1133.1,264.4c28.7,0,50.9-19.2,50.9-44.6c0-22.9-14.4-32.6-34.1-36.7l-5.6-1.1
	c-7.1-1.5-13.3-2.3-13.3-6.9s5.4-6.1,11.6-6.1c7.5,0,17.7,3.6,23.9,8l14.3-31.3l-4.1-2c-10.7-5.1-23.4-8.2-37.2-8.2
	c-28.2,0-50.1,19.2-50.1,44.4c0,19.5,12.1,30.6,30,34.2l6.6,1.3c7.9,1.6,15.7,2.8,15.7,8.4c0,4.9-5.1,7-12.8,7
	c-7.7,0-18.7-2.9-30.6-11.6l-14.4,31.1l3.3,2C1099.7,260,1115.1,264.4,1133.1,264.4 M1006.5,264.4c18,0,32.8-6.1,42.9-15.9
	c8.4-8.2,13.1-19.3,13.1-35.2v-75h-42.3v72.6c0,9.5-5.9,14.3-13.8,14.3c-8,0-13.8-4.8-13.8-14.3v-72.6h-42.3v75
	c0,15.9,4.8,27,13.1,35.2C973.7,258.3,988.4,264.4,1006.5,264.4 M859.7,225.1c-13.8,0-23.4-10.7-23.4-25.1s9.7-25.1,23.4-25.1
	c13.4,0,23.4,10.7,23.4,25.1S873.1,225.1,859.7,225.1 M859.7,264.4c38,0,65.7-27.4,65.7-64.4s-27.7-64.4-65.7-64.4S794,163,794,200
	S821.6,264.4,859.7,264.4 M653.2,138.2v123.5h42.3v-42.9h30.2v42.9h42.3V138.2h-42.3v41.3h-30.2v-41.3H653.2z M538.5,261.8h41.8
	l-22.9-123.5h-43.9l-18.7,51.3l-16.4-51.3h-43.9l-22.9,123.5h41.8l10.3-57.2l18.4,57.2h27.9l18.3-57.2L538.5,261.8z M361.3,264.4
	c10.5,0,20-2.3,28.2-6.9v-42c-6.2,5.7-14.9,9.5-24.9,9.5c-15.4,0-26.5-10.6-26.5-25.1s11.1-25.1,26.5-25.1c10,0,18.7,3.8,24.9,9.5
	v-42.1c-8.2-4.1-17.7-6.7-28.2-6.7c-37.9,0-65.5,27.5-65.5,64.4S323.4,264.4,361.3,264.4 M237.9,261.8h41.8l-22.9-123.5h-43.9
	l-18.7,51.3l-16.4-51.3h-43.9l-22.9,123.5h41.8l10.3-57.2l18.3,57.2h27.9l18.4-57.2L237.9,261.8z"/>
</svg>
