<?xml version="1.0" encoding="utf-8"?>
<!-- Generator: Adobe Illustrator 25.1.0, SVG Export Plug-In . SVG Version: 6.00 Build 0)  -->
<svg version="1.1" id="Layer_1" xmlns="http://www.w3.org/2000/svg" xmlns:xlink="http://www.w3.org/1999/xlink" x="0px" y="0px"
	 viewBox="0 0 474.55 132.87" style="enable-background:new 0 0 474.55 132.87;" xml:space="preserve">
<style type="text/css">
	.st0{fill:#FFFFFF;}
</style>
<g>
	<path class="st0" d="M430.55,128.43h41.78L449.39,4.9h-43.91L386.8,56.18L370.42,4.9h-43.91l-22.94,123.53h41.78l10.32-57.18
		l18.35,57.18h27.85l18.35-57.18L430.55,128.43z M253.28,131.06c10.49,0,19.99-2.29,28.18-6.88V82.23c-6.23,5.73-14.91,9.5-24.9,9.5
		c-15.4,0-26.54-10.65-26.54-25.07s11.14-25.07,26.54-25.07c9.99,0,18.68,3.77,24.9,9.5V9c-8.19-4.1-17.69-6.72-28.18-6.72
		c-37.85,0-65.53,27.52-65.53,64.39S215.43,131.06,253.28,131.06 M129.91,128.43h41.78L148.75,4.9h-43.91L86.17,56.18L69.78,4.9
		H25.88L2.94,128.43h41.78l10.32-57.18l18.35,57.18h27.85l18.35-57.18L129.91,128.43z"/>
</g>
</svg>
